HIERARCHY
ROOT Bone
{
	OFFSET 0.000000 0.000000 0.000000
	CHANNELS 6 Xposition Yposition Zposition Xrotation Yrotation Zrotation
	JOINT Bone.001
	{
		OFFSET 0.000000 0.000000 0.500000
		CHANNELS 3 Xrotation Yrotation Zrotation
		JOINT Bone.002
		{
			OFFSET 0.000000 0.000000 0.500000
			CHANNELS 3 Xrotation Yrotation Zrotation
			JOINT Bone.003
			{
				OFFSET 0.000000 0.000000 0.500000
				CHANNELS 3 Xrotation Yrotation Zrotation
				JOINT Bone.004
				{
					OFFSET 0.000000 0.000000 0.500000
					CHANNELS 3 Xrotation Yrotation Zrotation
					JOINT Bone.006
					{
						OFFSET 0.000000 0.000000 0.500000
						CHANNELS 3 Xrotation Yrotation Zrotation
						End Site
						{
							OFFSET 0.000000 0.000000 0.500000
						}
					}
				}
			}
		}
	}
}
MOTION
Frames: 3
Frame Time: 0.041667
0.000000 0.000000 0.000000 -0.000000 0.000000 -0.000000 -0.000000 0.000000 -0.000000 -0.000000 0.000000 -0.000000 -0.000000 0.000000 -0.000000 -0.000000 0.000000 -0.000000 -0.000000 0.000000 -0.000000 
0.000000 0.000000 0.000000 73.193455 -4.439987 56.082591 -71.516814 60.467972 -15.908670 85.979528 2.848929 65.115431 -52.137757 46.866248 -21.019253 65.649005 -7.511574 50.437894 -31.235801 26.264914 -17.637160 
0.000000 0.000000 0.000000 -0.000000 0.000000 -0.000000 -0.000000 0.000000 -0.000000 85.979521 2.848929 65.115431 -52.137757 46.866245 -21.019253 65.648998 -7.511574 50.437891 -31.235801 26.264915 -17.637162 
